<svg
    xmlns="http://www.w3.org/2000/svg"
    viewBox="0 0 24 24"
    fill="currentColor"
    className="w-6 h-6"
>
    <path
        fillRule="evenodd"
        d="M6 2.25A3.75 3.75 0 002.25 6v12A3.75 3.75 0 006 21.75h12a.75.75 0 000-1.5H6A2.25 2.25 0 013.75 18V6A2.25 2.25 0 016 3.75h12a.75.75 0 000-1.5H6z"
        clipRule="evenodd"
    />
    <path d="M18 7.5a.75.75 0 01.75-.75h2.25a.75.75 0 010 1.5H18.75A.75.75 0 0118 7.5zM18 10.5a.75.75 0 01.75-.75h2.25a.75.75 0 010 1.5H18.75A.75.75 0 0118 10.5zM18.75 12.75a.75.75 0 000 1.5h2.25a.75.75 0 000-1.5h-2.25z" />
</svg>